<?xml version="1.0"?>
<svg version="1.1" xmlns="http://www.w3.org/2000/svg" xmlns:xlink="http://www.w3.org/1999/xlink" width="125" height="32">
    <desc iVinci="yes" version="4.5" gridStep="1" showGrid="no" snapToGrid="no" codePlatform="0"/>
    <g id="Layer1" opacity="1">
        <g id="Shape1">
            <desc shapeID="1" type="0" basicInfo-basicType="0" basicInfo-roundedRectRadius="12" basicInfo-polygonSides="6" basicInfo-starPoints="5" bounding="rect(-93.1613,-40.4687,186.323,80.9374)" text="" font-familyName="" font-pixelSize="20" font-bold="0" font-underline="0" font-alignment="1" strokeStyle="0" markerStart="0" markerEnd="0" shadowEnabled="0" shadowOffsetX="0" shadowOffsetY="2" shadowBlur="4" shadowOpacity="160" blurEnabled="0" blurRadius="4" transform="matrix(0.198733,0,0,0.198733,58.6255,16.4436)" pers-center="0,0" pers-size="0,0" pers-start="0,0" pers-end="0,0" locked="0" mesh="" flag=""/>
            <path id="shapePath1" d="M75.0557,21.8487 C74.6217,21.8487 74.2725,21.7369 74.0087,21.5123 C73.7441,21.288 73.6122,20.9408 73.6122,20.4702 L73.6122,14.6203 L77.0095,14.6203 L77.0095,12.1349 L73.6122,12.1349 L73.6122,9.55185 L71.4959,9.55185 L70.5405,12.113 L68.7171,13.2202 L68.7171,14.6203 L70.3018,14.6203 L70.3018,20.4702 C70.3018,21.8093 70.6039,22.8131 71.208,23.4823 C71.8124,24.1517 72.7763,24.4861 74.1006,24.4861 C75.3017,24.4861 76.3147,24.3018 77.1397,23.9329 L77.1397,21.4691 C76.3294,21.7223 75.6348,21.8487 75.0557,21.8487 M60.0581,16.8237 C60.116,16.006 60.344,15.3747 60.742,14.9296 C61.1397,14.4846 61.6897,14.2621 62.3917,14.2621 C63.0935,14.2621 63.6507,14.4846 64.0633,14.9296 C64.4754,15.3747 64.6888,16.006 64.7037,16.8237 L60.0581,16.8237 M62.3699,11.9068 C60.5756,11.9068 59.1698,12.4623 58.1535,13.573 C57.1365,14.6839 56.6285,16.2556 56.6285,18.2889 C56.6285,20.2643 57.1782,21.7911 58.2782,22.869 C59.3779,23.9474 60.9047,24.4861 62.8585,24.4861 C63.8062,24.4861 64.6093,24.4159 65.2679,24.2748 C65.9262,24.1337 66.545,23.9183 67.124,23.6289 L67.124,21.0674 C66.4148,21.4003 65.7347,21.6425 65.0836,21.7946 C64.4322,21.9466 63.7411,22.0226 63.0103,22.0226 C62.0695,22.0226 61.3387,21.7583 60.8178,21.2301 C60.2971,20.702 60.0184,19.9677 59.9821,19.027 L67.8077,19.027 L67.8077,17.4207 C67.8077,15.6984 67.33,14.349 66.3751,13.372 C65.4199,12.3952 64.0852,11.9068 62.3699,11.9068 M51.1603,15.9121 C51.1603,16.7659 51.2147,18.2236 51.3233,20.2859 L51.2473,20.2859 L44.3552,8.40119 L40.1113,8.40119 L40.1113,24.2692 L43.1179,24.2692 L43.1179,16.8019 C43.1179,15.8974 43.0488,14.3853 42.9117,12.2651 L43.0093,12.2651 L49.912,24.2692 L54.1885,24.2692 L54.1885,8.40119 L51.1603,8.40119 L51.1603,15.9121 Z" style="stroke:none;fill-rule:evenodd;fill:#1a2629;fill-opacity:1;"/>
        </g>
        <g id="Shape2">
            <desc shapeID="2" type="0" basicInfo-basicType="0" basicInfo-roundedRectRadius="12" basicInfo-polygonSides="6" basicInfo-starPoints="5" bounding="rect(-104.292,-40.9331,208.584,81.8661)" text="" font-familyName="" font-pixelSize="20" font-bold="0" font-underline="0" font-alignment="1" strokeStyle="0" markerStart="0" markerEnd="0" shadowEnabled="0" shadowOffsetX="0" shadowOffsetY="2" shadowBlur="4" shadowOpacity="160" blurEnabled="0" blurRadius="4" transform="matrix(0.198733,0,0,0.198733,101.004,16.3514)" pers-center="0,0" pers-size="0,0" pers-start="0,0" pers-end="0,0" locked="0" mesh="" flag=""/>
            <path id="shapePath2" d="M117.671,15.5158 C117.186,15.9607 116.604,16.1833 115.923,16.1833 C115.2,16.1833 114.66,15.959 114.306,15.5104 C113.952,15.0617 113.774,14.4538 113.774,13.687 C113.774,12.7897 113.97,12.1021 114.36,11.6246 C114.751,11.1472 115.294,10.9084 115.988,10.9084 C116.69,10.9084 117.268,11.2051 117.72,11.7983 C118.172,12.3917 118.398,13.1191 118.398,13.9799 C118.398,14.5589 118.156,15.0707 117.671,15.5158 M121.025,11.4348 C120.554,10.3893 119.879,9.59159 119,9.0416 C118.121,8.49161 117.096,8.21661 115.923,8.21661 C114.259,8.21661 112.944,8.71046 111.978,9.69816 C111.012,10.6859 110.529,12.03 110.529,13.7302 C110.529,15.3077 110.927,16.5398 111.723,17.4259 C112.519,18.3122 113.608,18.7555 114.99,18.7555 C115.815,18.7555 116.502,18.6182 117.052,18.3431 C117.602,18.0683 118.087,17.5906 118.506,16.9104 L118.637,16.9104 C118.579,18.1478 118.358,19.1191 117.975,19.8246 C117.591,20.5301 117.038,21.0476 116.314,21.3767 C115.591,21.7061 114.668,21.8706 113.546,21.8706 C112.881,21.8706 112.244,21.7946 111.636,21.6425 L111.636,24.3344 C112.121,24.4357 112.834,24.4861 113.774,24.4861 C116.444,24.4861 118.438,23.7158 119.754,22.1746 C121.072,20.6332 121.73,18.2998 121.73,15.1738 C121.73,13.7267 121.495,12.4804 121.025,11.4348 M100.385,16.8237 C100.443,16.006 100.671,15.3747 101.069,14.9296 C101.467,14.4846 102.017,14.2621 102.719,14.2621 C103.42,14.2621 103.978,14.4846 104.39,14.9296 C104.803,15.3747 105.016,16.006 105.031,16.8237 L100.385,16.8237 M102.697,11.9068 C100.902,11.9068 99.4969,12.4623 98.4806,13.573 C97.4638,14.6839 96.9553,16.2556 96.9553,18.2889 C96.9553,20.2643 97.5056,21.7911 98.6053,22.869 C99.705,23.9474 101.232,24.4861 103.186,24.4861 C104.133,24.4861 104.936,24.4159 105.595,24.2748 C106.254,24.1337 106.872,23.9183 107.451,23.6289 L107.451,21.0674 C106.742,21.4003 106.062,21.6425 105.411,21.7946 C104.759,21.9466 104.068,22.0226 103.337,22.0226 C102.397,22.0226 101.666,21.7583 101.145,21.2301 C100.624,20.702 100.345,19.9677 100.309,19.027 L108.135,19.027 L108.135,17.4207 C108.135,15.6984 107.657,14.349 106.702,13.372 C105.747,12.3952 104.412,11.9068 102.697,11.9068 M92.0411,14.5771 C92.4893,14.5771 92.9379,14.6439 93.3868,14.7778 C93.8355,14.9117 94.3204,15.0836 94.8413,15.2932 L95.8181,12.7316 C94.7037,12.1818 93.4447,11.9068 92.0411,11.9068 C90.1234,11.9068 88.651,12.4514 87.6236,13.5404 C86.5959,14.6295 86.0824,16.2049 86.0824,18.2673 C86.0824,22.4131 87.9708,24.4861 91.748,24.4861 C92.58,24.4861 93.2691,24.4213 93.8153,24.2909 C94.3619,24.1608 94.9026,23.9254 95.4382,23.5856 L95.4382,20.7524 C94.8955,21.1147 94.3529,21.3804 93.8101,21.5504 C93.2673,21.7203 92.6776,21.8055 92.0411,21.8055 C90.3189,21.8055 89.4579,20.6188 89.4579,18.2454 C89.4579,15.7998 90.3189,14.5771 92.0411,14.5771 M80.2776,24.2692 L83.6424,24.2692 L83.6424,8.40118 L80.2776,8.40118 L80.2776,24.2692 Z" style="stroke:none;fill-rule:evenodd;fill:#13adce;fill-opacity:1;"/>
        </g>
        <g id="Shape3">
            <desc shapeID="3" type="0" basicInfo-basicType="0" basicInfo-roundedRectRadius="12" basicInfo-polygonSides="6" basicInfo-starPoints="5" bounding="rect(-73.1705,-46.9111,146.341,93.8222)" text="" font-familyName="" font-pixelSize="20" font-bold="0" font-underline="0" font-alignment="1" strokeStyle="0" markerStart="0" markerEnd="0" shadowEnabled="0" shadowOffsetX="0" shadowOffsetY="2" shadowBlur="4" shadowOpacity="160" blurEnabled="0" blurRadius="4" transform="matrix(0.198733,0,0,0.198733,14.6197,22.7461)" pers-center="0,0" pers-size="0,0" pers-start="0,0" pers-end="0,0" locked="0" mesh="" flag=""/>
            <path id="shapePath3" d="M16.0219,32.0688 C21.4584,32.0688 26.2601,29.3616 29.1611,25.2242 C26.3557,28.656 21.3034,31.301 16.3132,30.9854 C8.84297,30.5134 6.15327,24.7271 5.79277,21.925 C5.44218,19.2001 6.44585,17.9016 7.63212,17.3951 C9.0576,16.7867 10.9226,17.182 11.2601,17.3459 C7.87074,14.2896 5.66896,13.3121 3.62196,13.4331 C2.17007,13.5191 0.00944138,14.6213 0.0799904,17.7906 C0.957497,25.8199 7.75886,32.0688 16.0219,32.0688 Z" style="stroke:none;fill-rule:evenodd;fill:#1a2629;fill-opacity:1;"/>
        </g>
        <g id="Shape4">
            <desc shapeID="4" type="0" basicInfo-basicType="0" basicInfo-roundedRectRadius="12" basicInfo-polygonSides="6" basicInfo-starPoints="5" bounding="rect(-73.1709,-46.9111,146.342,93.8222)" text="" font-familyName="" font-pixelSize="20" font-bold="0" font-underline="0" font-alignment="1" strokeStyle="0" markerStart="0" markerEnd="0" shadowEnabled="0" shadowOffsetX="0" shadowOffsetY="2" shadowBlur="4" shadowOpacity="160" blurEnabled="0" blurRadius="4" transform="matrix(0.198733,0,0,0.198733,17.5613,9.32278)" pers-center="0,0" pers-size="0,0" pers-start="0,0" pers-end="0,0" locked="0" mesh="" flag=""/>
            <path id="shapePath4" d="M24.5487,14.6737 C23.1236,15.2823 21.2587,14.8868 20.9209,14.7229 C24.3102,17.7791 26.5122,18.7566 28.5592,18.6357 C30.0109,18.5499 32.1716,17.4475 32.1011,14.2782 C31.2234,6.24891 24.4223,-3.8147e-06 16.1592,-3.8147e-06 C10.7224,-3.8147e-06 5.92077,2.70748 3.01981,6.84511 C5.82498,3.41324 10.8775,0.7681 15.8678,1.08334 C23.3382,1.55533 26.0278,7.34169 26.3885,10.1441 C26.7388,12.8687 25.7354,14.1672 24.5487,14.6737 Z" style="stroke:none;fill-rule:evenodd;fill:#1a2629;fill-opacity:1;"/>
        </g>
        <g id="Shape5">
            <desc shapeID="5" type="0" basicInfo-basicType="0" basicInfo-roundedRectRadius="12" basicInfo-polygonSides="6" basicInfo-starPoints="5" bounding="rect(-80.5876,-46.8057,161.175,93.6115)" text="" font-familyName="" font-pixelSize="20" font-bold="0" font-underline="0" font-alignment="1" strokeStyle="0" markerStart="0" markerEnd="0" shadowEnabled="0" shadowOffsetX="0" shadowOffsetY="2" shadowBlur="4" shadowOpacity="160" blurEnabled="0" blurRadius="4" transform="matrix(0.198733,0,0,0.198733,16.1585,16.0172)" pers-center="0,0" pers-size="0,0" pers-start="0,0" pers-end="0,0" locked="0" mesh="" flag=""/>
            <path id="shapePath5" d="M29.9153,19.5687 C26.8771,20.5512 24.1985,18.9104 20.1319,15.5941 C16.1451,12.3431 12.8627,9.449 12.006,8.79393 C8.7398,6.2966 5.95814,6.26158 3.80623,7.57123 C0.661137,9.48478 0.143065,14.4678 0.143065,14.4678 C0.143065,14.4678 0.803106,12.8863 2.71718,12.3426 C5.00628,11.6922 7.41428,12.6876 9.48592,14.3381 C10.9598,15.5123 15.2505,19.2152 16.3229,20.0825 C18.5515,21.8835 20.1642,23.2021 20.8416,23.6398 C24.2949,25.8713 27.0709,25.686 29.1124,24.2104 C32.0964,22.0539 32.1739,17.2684 32.1739,17.2684 C32.1739,17.2684 31.8085,18.9564 29.9153,19.5687 Z" style="stroke:none;fill-rule:evenodd;fill:#13adce;fill-opacity:1;"/>
        </g>
    </g>
</svg>
